<svg width="6" height="9" viewBox="0 0 6 9" fill="none" xmlns="http://www.w3.org/2000/svg">
<path d="M4.64373 8.875C4.55036 8.87532 4.4581 8.85471 4.37374 8.8147C4.28938 8.77468 4.21505 8.71627 4.15623 8.64375L1.13748 4.89375C1.04555 4.78192 0.9953 4.64164 0.9953 4.49688C0.9953 4.35211 1.04555 4.21184 1.13748 4.1L4.26248 0.350005C4.36857 0.222369 4.52101 0.142104 4.68628 0.126866C4.85154 0.111629 5.0161 0.162668 5.14373 0.268754C5.27137 0.374841 5.35163 0.527286 5.36687 0.692552C5.38211 0.857818 5.33107 1.02237 5.22498 1.15L2.43123 4.5L5.13123 7.85C5.20766 7.94174 5.25621 8.05346 5.27113 8.17193C5.28606 8.29039 5.26673 8.41066 5.21545 8.51849C5.16416 8.62632 5.08306 8.7172 4.98174 8.78038C4.88042 8.84356 4.76313 8.8764 4.64373 8.875Z" fill="black"/>
</svg>
