<svg width="6" height="9" viewBox="0 0 6 9" fill="none" xmlns="http://www.w3.org/2000/svg">
<path d="M1.35627 0.124997C1.44964 0.124679 1.5419 0.145287 1.62626 0.185305C1.71062 0.225323 1.78494 0.283735 1.84377 0.356247L4.86252 4.10625C4.95445 4.21808 5.0047 4.35836 5.0047 4.50312C5.0047 4.64789 4.95445 4.78816 4.86252 4.9L1.73752 8.65C1.63143 8.77763 1.47899 8.8579 1.31372 8.87313C1.14846 8.88837 0.983905 8.83733 0.856269 8.73125C0.728634 8.62516 0.648369 8.47271 0.633131 8.30745C0.617894 8.14218 0.668933 7.97763 0.775019 7.85L3.56877 4.5L0.868769 1.15C0.792342 1.05826 0.743794 0.946543 0.728869 0.828075C0.713944 0.709607 0.733268 0.589342 0.784552 0.481512C0.835837 0.373682 0.916937 0.2828 1.01826 0.219619C1.11958 0.156438 1.23687 0.123602 1.35627 0.124997Z" fill="black"/>
</svg>
